Coordinates
version=1
nRows=8
nColumns=40
inDegrees=yes

Units are S.I. units (second, meters, Newtons, ...)
If the header above contains a line with 'inDegrees', this indicates whether rotational values are in degrees (yes) or radians (no).

endheader
time	pelvis_tilt	pelvis_list	pelvis_rotation	pelvis_tx	pelvis_ty	pelvis_tz	hip_flexion_r	hip_adduction_r	hip_rotation_r	knee_angle_r	knee_angle_r_beta	ankle_angle_r	subtalar_angle_r	mtp_angle_r	hip_flexion_l	hip_adduction_l	hip_rotation_l	knee_angle_l	knee_angle_l_beta	ankle_angle_l	subtalar_angle_l	mtp_angle_l	lumbar_extension	lumbar_bending	lumbar_rotation	arm_flex_r	arm_add_r	arm_rot_r	elbow_flex_r	pro_sup_r	wrist_flex_r	wrist_dev_r	arm_flex_l	arm_add_l	arm_rot_l	elbow_flex_l	pro_sup_l	wrist_flex_l	wrist_dev_l
      3.94166667	      1.00507806	     -1.78786770	      4.55836884	     -0.19174523	      1.09680137	      0.04134284	     65.28530425	     -5.45091632	      1.40191562	     77.81851711	      1.35818934	     -1.40738807	    -42.10559322	      0.00000000	     42.94162158	     -6.67393171	      7.85319729	     73.68726462	      1.28608538	    -22.69598625	    -26.65724793	      0.00000000	    -59.47466716	      5.42731743	     -3.07481418	     86.69877222	     -2.43167813	      8.81843957	     38.28627949	      3.92319222	      0.00000000	      0.00000000	     88.84711641	    -23.99413363	     32.30804848	     55.29779079	     88.80677628	      0.00000000	      0.00000000
      3.95000000	      1.02984901	     -1.59025044	      4.46524349	     -0.19162323	      1.09679610	      0.04152259	     63.60437530	     -5.46356913	      1.26391554	     74.85132613	      1.30640209	     -2.48345880	    -42.43430438	      0.00000000	     44.07915315	     -6.50512549	      7.99119277	     76.38833264	      1.33322791	    -21.78672437	    -26.49853876	      0.00000000	    -59.49893537	      5.14309163	     -3.19451074	     86.62258041	     -2.43380480	      8.62646451	     38.28502664	      3.88362696	      0.00000000	      0.00000000	     88.87992100	    -23.90729899	     32.30740304	     55.28413356	     88.81329399	      0.00000000	      0.00000000
      3.95833333	      1.27452312	     -1.42395005	      4.43060683	     -0.19119938	      1.09715016	      0.04166679	     61.57561582	     -5.65650095	      0.85490431	     71.85792765	      1.25415743	     -3.28712828	    -42.13516126	      0.00000000	     45.01607172	     -6.37098485	      8.11509456	     79.06567227	      1.37995631	    -21.08346658	    -26.50866371	      0.00000000	    -59.74451127	      4.92503733	     -3.29976728	     86.54470799	     -2.38839930	      8.24563966	     38.22464413	      3.94503987	      0.00000000	      0.00000000	     88.91009507	    -23.79893133	     32.26937750	     55.26402058	     88.80925324	      0.00000000	      0.00000000
      3.96666667	      1.44463047	     -1.07544015	      4.51972567	     -0.19082912	      1.09737197	      0.04158106	     59.56805666	     -6.04745214	      0.55777081	     68.87138057	      1.20203235	     -4.16666484	    -42.01258799	      0.00000000	     45.98249282	     -5.89837888	      8.24153760	     81.66193114	      1.42526957	    -20.27359515	    -26.68912363	      0.00000000	    -59.90776777	      4.69796690	     -3.64834885	     86.45744541	     -2.30592153	      7.78642766	     38.13229447	      4.09248152	      0.00000000	      0.00000000	     88.95241267	    -23.73727620	     32.32386915	     55.29739836	     88.81199618	      0.00000000	      0.00000000
      3.97500000	      1.70820985	     -0.77030610	      4.64858353	     -0.19021478	      1.09768198	      0.04154517	     57.39774836	     -6.51162048	      0.12917734	     65.88672750	      1.14994033	     -4.89090754	    -41.40232584	      0.00000000	     46.91925888	     -5.51136395	      8.35745612	     84.21430820	      1.46981696	    -19.12169741	    -26.52420405	      0.00000000	    -60.15425432	      4.52101713	     -4.01412683	     86.34782706	     -2.13229135	      7.14112889	     38.00934721	      4.42877524	      0.00000000	      0.00000000	     88.99124542	    -23.77955040	     32.52460339	     55.43126549	     88.79405443	      0.00000000	      0.00000000
      3.98333333	      1.68036475	     -0.17852290	      4.50432475	     -0.18966441	      1.09738265	      0.04178393	     55.61125328	     -6.86169716	      0.24237368	     63.18619650	      1.10280717	     -5.41236266	    -40.86357602	      0.00000000	     48.20126399	     -5.07163971	      8.04577855	     86.75105204	      1.51409149	    -18.77864649	    -26.63831402	      0.00000000	    -60.08793644	      3.93006349	     -4.46932039	     86.16465543	     -2.16615396	      7.01903881	     38.04767248	      4.52288770	      0.00000000	      0.00000000	     88.96865456	    -23.68283235	     32.51760928	     55.45416732	     88.80371262	      0.00000000	      0.00000000
      3.99166667	      1.71110254	      0.39327516	      4.47004353	     -0.18902212	      1.09720457	      0.04186716	     53.66824806	     -7.35535924	      0.14082715	     60.22738433	      1.05116616	     -6.18887544	    -40.27582072	      0.00000000	     49.46402410	     -4.60438535	      7.76426108	     89.22782131	      1.55731927	    -18.19361098	    -26.89784293	      0.00000000	    -60.08225024	      3.44224339	     -4.97338727	     85.98844552	     -2.13721696	      6.79047227	     38.00191614	      4.50585217	      0.00000000	      0.00000000	     88.94925695	    -23.61739252	     32.55136490	     55.51791693	     88.81124830	      0.00000000	      0.00000000
      4.00000000	      1.71848298	      0.90421650	      4.45271824	     -0.18847903	      1.09710878	      0.04195730	     51.70065719	     -7.83546117	     -0.09013844	     57.35008734	      1.00094785	     -6.90098097	    -39.46619578	      0.00000000	     50.82213800	     -4.19831453	      7.53518307	     91.58447748	      1.59845068	    -17.57472410	    -27.02121484	      0.00000000	    -60.07442678	      3.00577261	     -5.45386517	     85.82630260	     -2.06575628	      6.42231092	     37.98952475	      4.89028329	      0.00000000	      0.00000000	     88.92333045	    -23.56000466	     32.49115822	     55.62868856	     88.66306297	      0.00000000	      0.00000000
